<svg xmlns="http://www.w3.org/2000/svg" version="1.1" width="400px" height="100px" viewBox="0 100 577 200" style="shape-rendering:geometricPrecision; text-rendering:geometricPrecision; image-rendering:optimizeQuality; fill-rule:evenodd; clip-rule:evenodd" xmlns:xlink="http://www.w3.org/1999/xlink">
<g><path style="opacity:0.994" fill="#75aa73" d="M 124.5,184.5 C 126.167,184.5 127.833,184.5 129.5,184.5C 129.5,182.167 129.5,179.833 129.5,177.5C 130.5,176.167 131.5,176.167 132.5,177.5C 132.5,179.833 132.5,182.167 132.5,184.5C 134.167,184.5 135.833,184.5 137.5,184.5C 140.091,185.254 141.924,186.921 143,189.5C 144.03,193.773 144.697,198.106 145,202.5C 149.738,207.64 153.738,213.307 157,219.5C 161.034,236.771 154.867,248.605 138.5,255C 133.5,255.667 128.5,255.667 123.5,255C 121.099,254.205 118.932,253.038 117,251.5C 102.272,258.654 89.2717,256.32 78,244.5C 68.6767,228.932 70.5101,214.766 83.5,202C 88.0201,198.882 93.0201,197.049 98.5,196.5C 98.5,193.5 98.5,190.5 98.5,187.5C 100.099,187.232 101.432,187.566 102.5,188.5C 102.561,195.021 103.228,195.021 104.5,188.5C 108.189,180.124 114.523,176.457 123.5,177.5C 122.346,180.102 121.846,182.768 122,185.5C 122.671,184.748 123.504,184.414 124.5,184.5 Z M 115.5,183.5 C 114.198,186.975 111.865,189.142 108.5,190C 110.05,186.949 112.383,184.782 115.5,183.5 Z M 119.5,188.5 C 119.064,192.643 118.23,196.643 117,200.5C 114.765,198.798 112.265,197.798 109.5,197.5C 109.167,196.833 108.833,196.167 108.5,195.5C 112.952,194.377 116.619,192.044 119.5,188.5 Z M 125.5,188.5 C 129.555,188.176 133.555,188.509 137.5,189.5C 138.892,195.497 140.392,201.497 142,207.5C 154.039,216.596 156.706,227.93 150,241.5C 142.16,250.561 132.66,253.061 121.5,249C 134.833,233.667 134.833,218.333 121.5,203C 121.987,197.884 123.32,193.051 125.5,188.5 Z M 94.5,201.5 C 96.5542,201.365 98.2209,202.032 99.5,203.5C 100.313,204.653 101.313,204.653 102.5,203.5C 103.167,202.5 103.833,201.5 104.5,200.5C 121.769,205.058 128.935,216.058 126,233.5C 118.951,248.608 107.451,253.775 91.5,249C 76.6311,239.723 73.1311,227.223 81,211.5C 84.533,206.792 89.033,203.459 94.5,201.5 Z"/></g>
<g><path style="opacity:1" fill="#5a9b5a" d="M 175.5,176.5 C 177.467,176.261 179.301,176.594 181,177.5C 181.667,203.167 181.667,228.833 181,254.5C 179,255.833 177,255.833 175,254.5C 174.177,228.428 174.343,202.428 175.5,176.5 Z"/></g>
<g><path style="opacity:0.452" fill="#bcd7bd" d="M 356.5,180.5 C 352.988,179.945 349.988,180.612 347.5,182.5C 346.596,181.791 346.263,180.791 346.5,179.5C 350.042,179.187 353.375,179.521 356.5,180.5 Z"/></g>
<g><path style="opacity:0.477" fill="#aeceae" d="M 458.5,181.5 C 455.073,179.823 452.073,180.156 449.5,182.5C 448.596,181.791 448.263,180.791 448.5,179.5C 452.329,178.931 455.663,179.598 458.5,181.5 Z"/></g>
<g><path style="opacity:0.472" fill="#b4d1b4" d="M 502.5,182.5 C 499.927,180.156 496.927,179.823 493.5,181.5C 496.337,179.598 499.671,178.931 503.5,179.5C 503.737,180.791 503.404,181.791 502.5,182.5 Z"/></g>
<g><path style="opacity:0.999" fill="#509551" d="M 236.5,180.5 C 237.72,182.05 237.72,183.716 236.5,185.5C 226.76,187.436 216.76,188.102 206.5,187.5C 206.5,195.833 206.5,204.167 206.5,212.5C 208.833,212.5 211.167,212.5 213.5,212.5C 216.5,212.5 219.5,212.5 222.5,212.5C 225.167,212.5 227.833,212.5 230.5,212.5C 230.5,214.5 230.5,216.5 230.5,218.5C 230.5,218.833 230.5,219.167 230.5,219.5C 222.5,219.5 214.5,219.5 206.5,219.5C 206.5,229.833 206.5,240.167 206.5,250.5C 203.833,250.5 201.167,250.5 198.5,250.5C 198.5,247.833 198.5,245.167 198.5,242.5C 198.5,228.167 198.5,213.833 198.5,199.5C 198.5,193.167 198.5,186.833 198.5,180.5C 211.167,180.5 223.833,180.5 236.5,180.5 Z"/></g>
<g><path style="opacity:0.999" fill="#5a9a5a" d="M 274.5,180.5 C 285.069,182.579 290.402,189.079 290.5,200C 290.117,209.605 285.784,216.772 277.5,221.5C 275.576,221.711 275.243,222.377 276.5,223.5C 276.5,223.833 276.5,224.167 276.5,224.5C 276.427,226.027 277.094,227.027 278.5,227.5C 278.427,229.027 279.094,230.027 280.5,230.5C 284.919,236.766 289.586,242.933 294.5,249C 291.648,251.547 288.315,252.547 284.5,252C 278.519,243.865 273.186,235.365 268.5,226.5C 264.285,224.564 259.619,223.897 254.5,224.5C 254.187,228.042 254.521,231.375 255.5,234.5C 255.5,239.833 255.5,245.167 255.5,250.5C 252.5,250.5 249.5,250.5 246.5,250.5C 246.5,249.167 246.5,247.833 246.5,246.5C 246.5,227.833 246.5,209.167 246.5,190.5C 246.5,187.167 246.5,183.833 246.5,180.5C 255.833,180.5 265.167,180.5 274.5,180.5 Z M 261.5,187.5 C 278.821,187.621 283.988,195.621 277,211.5C 274.015,214.409 270.515,216.409 266.5,217.5C 263.038,216.518 259.371,216.185 255.5,216.5C 255.5,207.167 255.5,197.833 255.5,188.5C 257.735,188.795 259.735,188.461 261.5,187.5 Z"/></g>
<g><path style="opacity:0.999" fill="#599a59" d="M 312.5,229.5 C 315.746,241.134 323.413,245.634 335.5,243C 341.767,241.066 345.601,236.9 347,230.5C 347.5,214.503 347.667,198.503 347.5,182.5C 349.988,180.612 352.988,179.945 356.5,180.5C 356.667,197.503 356.5,214.503 356,231.5C 352.892,245.93 343.892,252.93 329,252.5C 326.967,252.494 325.134,252.161 323.5,251.5C 321.485,250.076 319.152,249.41 316.5,249.5C 307.97,246.124 303.636,239.79 303.5,230.5C 303.5,213.833 303.5,197.167 303.5,180.5C 306.167,180.5 308.833,180.5 311.5,180.5C 311.17,197.009 311.504,213.342 312.5,229.5 Z"/></g>
<g><path style="opacity:1" fill="#4f9550" d="M 375.5,180.5 C 378.167,180.5 380.833,180.5 383.5,180.5C 383.5,188.833 383.5,197.167 383.5,205.5C 383.5,217.833 383.5,230.167 383.5,242.5C 383.5,245.167 383.5,247.833 383.5,250.5C 380.833,250.5 378.167,250.5 375.5,250.5C 375.5,227.167 375.5,203.833 375.5,180.5 Z"/></g>
<g><path style="opacity:0.999" fill="#589a58" d="M 444.5,183.5 C 443.566,184.568 443.232,185.901 443.5,187.5C 440.833,187.5 438.167,187.5 435.5,187.5C 431.833,187.5 428.167,187.5 424.5,187.5C 423.503,208.327 423.169,229.327 423.5,250.5C 420.833,250.5 418.167,250.5 415.5,250.5C 415.5,247.167 415.5,243.833 415.5,240.5C 415.545,222.824 415.211,205.158 414.5,187.5C 410.833,187.5 407.167,187.5 403.5,187.5C 400.833,187.5 398.167,187.5 395.5,187.5C 395.5,185.167 395.5,182.833 395.5,180.5C 411.658,179.504 427.991,179.17 444.5,179.5C 444.5,180.833 444.5,182.167 444.5,183.5 Z"/></g>
<g><path style="opacity:0.999" fill="#629f61" d="M 458.5,181.5 C 463.954,192.408 469.454,203.408 475,214.5C 481.208,203.406 487.375,192.406 493.5,181.5C 496.927,179.823 499.927,180.156 502.5,182.5C 495.294,197.05 487.628,211.383 479.5,225.5C 478.507,233.65 478.174,241.983 478.5,250.5C 475.833,250.5 473.167,250.5 470.5,250.5C 470.5,248.5 470.5,246.5 470.5,244.5C 470.666,238.158 470.5,231.825 470,225.5C 462.865,211.236 456.032,196.903 449.5,182.5C 452.073,180.156 455.073,179.823 458.5,181.5 Z"/></g>
<g><path style="opacity:0.188" fill="#c0d8c0" d="M 115.5,182.5 C 116.251,181.427 117.251,181.26 118.5,182C 117.956,182.717 117.289,183.217 116.5,183.5C 116.5,182.833 116.167,182.5 115.5,182.5 Z"/></g>
<g><path style="opacity:0.271" fill="#d5e6d6" d="M 129.5,177.5 C 129.5,179.833 129.5,182.167 129.5,184.5C 127.833,184.5 126.167,184.5 124.5,184.5C 125.568,183.566 126.901,183.232 128.5,183.5C 128.205,181.265 128.539,179.265 129.5,177.5 Z"/></g>
<g><path style="opacity:0.255" fill="#c1d9c1" d="M 132.5,177.5 C 133.461,179.265 133.795,181.265 133.5,183.5C 135.099,183.232 136.432,183.566 137.5,184.5C 135.833,184.5 134.167,184.5 132.5,184.5C 132.5,182.167 132.5,179.833 132.5,177.5 Z"/></g>
<g><path style="opacity:0.09" fill="#c4dbc3" d="M 236.5,185.5 C 236.5,186.5 236.5,187.5 236.5,188.5C 226.833,188.5 217.167,188.5 207.5,188.5C 207.5,196.167 207.5,203.833 207.5,211.5C 209.735,211.205 211.735,211.539 213.5,212.5C 211.167,212.5 208.833,212.5 206.5,212.5C 206.5,204.167 206.5,195.833 206.5,187.5C 216.76,188.102 226.76,187.436 236.5,185.5 Z"/></g>
<g><path style="opacity:0.329" fill="#d2e3d2" d="M 395.5,180.5 C 395.5,182.833 395.5,185.167 395.5,187.5C 398.167,187.5 400.833,187.5 403.5,187.5C 400.713,188.477 397.713,188.81 394.5,188.5C 394.194,185.615 394.527,182.948 395.5,180.5 Z"/></g>
<g><path style="opacity:0.325" fill="#d0e2d0" d="M 444.5,183.5 C 444.5,185.167 444.5,186.833 444.5,188.5C 441.287,188.81 438.287,188.477 435.5,187.5C 438.167,187.5 440.833,187.5 443.5,187.5C 443.232,185.901 443.566,184.568 444.5,183.5 Z"/></g>
<g><path style="opacity:0.012" fill="#d4e5d4" d="M 274.5,180.5 C 265.167,180.5 255.833,180.5 246.5,180.5C 246.5,183.833 246.5,187.167 246.5,190.5C 245.518,187.038 245.185,183.371 245.5,179.5C 255.348,179.173 265.014,179.506 274.5,180.5 Z"/></g>
<g><path style="opacity:0.248" fill="#d6e6d6" d="M 102.5,188.5 C 103.167,188.5 103.833,188.5 104.5,188.5C 103.228,195.021 102.561,195.021 102.5,188.5 Z"/></g>
<g><path style="opacity:0.112" fill="#dceadc" d="M 374.5,180.5 C 377.625,179.521 380.958,179.187 384.5,179.5C 384.826,188.349 384.493,197.016 383.5,205.5C 383.5,197.167 383.5,188.833 383.5,180.5C 380.833,180.5 378.167,180.5 375.5,180.5C 375.167,180.5 374.833,180.5 374.5,180.5 Z"/></g>
<g><path style="opacity:0.6" fill="#b1cfb1" d="M 108.5,195.5 C 108.833,196.167 109.167,196.833 109.5,197.5C 103.547,197.628 103.213,196.961 108.5,195.5 Z"/></g>
<g><path style="opacity:0.014" fill="#d6e6d6" d="M 236.5,180.5 C 223.833,180.5 211.167,180.5 198.5,180.5C 198.5,186.833 198.5,193.167 198.5,199.5C 197.509,193.021 197.176,186.354 197.5,179.5C 210.677,179.171 223.677,179.505 236.5,180.5 Z"/></g>
<g><path style="opacity:0.024" fill="#d6e6d6" d="M 94.5,201.5 C 95.9187,200.549 97.5853,200.216 99.5,200.5C 99.5,201.5 99.5,202.5 99.5,203.5C 98.2209,202.032 96.5542,201.365 94.5,201.5 Z"/></g>
<g><path style="opacity:0.994" fill="#7daf7b" d="M 92.5,203.5 C 95.2335,204.721 98.0669,205.721 101,206.5C 103.738,206.424 106.072,205.424 108,203.5C 111.23,205.602 111.063,207.768 107.5,210C 103.167,212 98.8333,212 94.5,210C 91.6793,208.379 91.0126,206.212 92.5,203.5 Z"/></g>
<g><path style="opacity:0.625" fill="#a6c9a6" d="M 261.5,187.5 C 259.735,188.461 257.735,188.795 255.5,188.5C 255.5,197.833 255.5,207.167 255.5,216.5C 259.371,216.185 263.038,216.518 266.5,217.5C 262.5,217.5 258.5,217.5 254.5,217.5C 254.5,207.5 254.5,197.5 254.5,187.5C 256.833,187.5 259.167,187.5 261.5,187.5 Z"/></g>
<g><path style="opacity:0.18" fill="#e0ece0" d="M 222.5,212.5 C 225.287,211.523 228.287,211.19 231.5,211.5C 231.802,214.059 231.468,216.393 230.5,218.5C 230.5,216.5 230.5,214.5 230.5,212.5C 227.833,212.5 225.167,212.5 222.5,212.5 Z"/></g>
<g><path style="opacity:0.38" fill="#bfd8bf" d="M 312.5,229.5 C 311.504,213.342 311.17,197.009 311.5,180.5C 308.833,180.5 306.167,180.5 303.5,180.5C 303.5,197.167 303.5,213.833 303.5,230.5C 302.503,213.675 302.17,196.675 302.5,179.5C 305.833,179.5 309.167,179.5 312.5,179.5C 312.5,196.167 312.5,212.833 312.5,229.5 Z"/></g>
<g><path style="opacity:0.256" fill="#b7d3b7" d="M 374.5,180.5 C 374.833,180.5 375.167,180.5 375.5,180.5C 375.5,203.833 375.5,227.167 375.5,250.5C 378.167,250.5 380.833,250.5 383.5,250.5C 383.5,247.833 383.5,245.167 383.5,242.5C 384.477,245.287 384.81,248.287 384.5,251.5C 381.167,251.5 377.833,251.5 374.5,251.5C 374.5,227.833 374.5,204.167 374.5,180.5 Z"/></g>
<g><path style="opacity:0.102" fill="#e1ede1" d="M 277.5,221.5 C 277.167,222.167 276.833,222.833 276.5,223.5C 275.243,222.377 275.576,221.711 277.5,221.5 Z"/></g>
<g><path style="opacity:0.27" fill="#c7ddc7" d="M 268.5,226.5 C 264.265,225.564 259.931,225.231 255.5,225.5C 255.5,228.5 255.5,231.5 255.5,234.5C 254.521,231.375 254.187,228.042 254.5,224.5C 259.619,223.897 264.285,224.564 268.5,226.5 Z"/></g>
<g><path style="opacity:0.514" fill="#adcead" d="M 276.5,224.5 C 277.906,224.973 278.573,225.973 278.5,227.5C 277.094,227.027 276.427,226.027 276.5,224.5 Z"/></g>
<g><path style="opacity:0.259" fill="#b9d4b9" d="M 424.5,187.5 C 424.5,208.833 424.5,230.167 424.5,251.5C 421.167,251.5 417.833,251.5 414.5,251.5C 414.185,247.629 414.518,243.962 415.5,240.5C 415.5,243.833 415.5,247.167 415.5,250.5C 418.167,250.5 420.833,250.5 423.5,250.5C 423.169,229.327 423.503,208.327 424.5,187.5 Z"/></g>
<g><path style="opacity:0.243" fill="#c7ddc7" d="M 230.5,219.5 C 223.018,220.492 215.352,220.825 207.5,220.5C 207.5,230.833 207.5,241.167 207.5,251.5C 204.167,251.5 200.833,251.5 197.5,251.5C 197.19,248.287 197.523,245.287 198.5,242.5C 198.5,245.167 198.5,247.833 198.5,250.5C 201.167,250.5 203.833,250.5 206.5,250.5C 206.5,240.167 206.5,229.833 206.5,219.5C 214.5,219.5 222.5,219.5 230.5,219.5 Z"/></g>
<g><path style="opacity:0.455" fill="#b6d3b6" d="M 278.5,227.5 C 279.906,227.973 280.573,228.973 280.5,230.5C 279.094,230.027 278.427,229.027 278.5,227.5 Z"/></g>
<g><path style="opacity:0.435" fill="#c2dac2" d="M 246.5,246.5 C 246.5,247.833 246.5,249.167 246.5,250.5C 249.5,250.5 252.5,250.5 255.5,250.5C 252.375,251.479 249.042,251.813 245.5,251.5C 245.216,249.585 245.549,247.919 246.5,246.5 Z"/></g>
<g><path style="opacity:0.804" fill="#90bb90" d="M 316.5,249.5 C 319.152,249.41 321.485,250.076 323.5,251.5C 320.848,251.59 318.515,250.924 316.5,249.5 Z"/></g>
<g><path style="opacity:0.436" fill="#b4d2b5" d="M 479.5,225.5 C 479.5,234.167 479.5,242.833 479.5,251.5C 476.167,251.5 472.833,251.5 469.5,251.5C 469.198,248.941 469.532,246.607 470.5,244.5C 470.5,246.5 470.5,248.5 470.5,250.5C 473.167,250.5 475.833,250.5 478.5,250.5C 478.174,241.983 478.507,233.65 479.5,225.5 Z"/></g>
</svg>
